<?xml version="1.0" encoding="UTF-8"?>
<svg version="1.1" viewBox="0 0 1988 2048" width="1280" height="1280" xmlns="http://www.w3.org/2000/svg">
<path transform="translate(0)" d="m0 0h1988v2048h-1988z" fill="#F4EEE5"/>
<path transform="translate(969,495)" d="m0 0h32l21 5v2l11 1 5 2 17 4 11 3 21 5 4 2 7 1 7 2 5 2 7 1 7 2 13 3 7 2 9 3 9 2 17 4 4 2 15 3 17 5 31 7 2 4h12l5 2 16 3 15 4 31 8 1 1v6l-4 3-6 1-1 2-8 1-31 7-6 2-15 3-7 2h-6l1 81v44l4 3h3l-1 28-10 1-2 1-12-3v-27l7-3 1-64 1-22h-2v14l-2 38-1 25-1 9h-1l1-43 3-65 2-13-9 2-4 2-19 4-4 1h-7v2l-16 3-6 2-7-1v70l-6 3-9-3-13-4-19-5-24-4-8-2-32-4-13-2h-27l-5-2-18-1h-12l-53 3-20 3-18 2-16 2-25 5-16 4-5 2-15 3h-3l-1-50 20-7 21-6h8v-2l27-7 30-5 25-4 20-2h57l34 1 15 1 9 2 11 1v-4l-18-2-12-2-32-3-19-1-42-1h-36l-22 2-4 1-14 1-48 8-10 3-17 5h-9l-24-6-26-7-24-6-15-4-26-6-28-7-13-4-3-2v-7l14-4 37-9 17-4 23-6 26-6 27-7 26-6 24-6 15-4 12-2 13-3 18-5 7-1 9-3 26-6 17-5z" fill="#4165AD"/>
<path transform="translate(1472,1248)" d="m0 0h94l18 5 8 5v2l4 2 4 6v5h2l1 2v26l-5 9-9 8-1 2 9 3 6 3 6 7 2 12v26l-5 10-8 5-6 3-13 4h-111v-4l7-1 2-4 3-72 1-34-3 37h-1v-57l-1-5-6-1v-3z" fill="#4467AD"/>
<path transform="translate(820,1112)" d="m0 0h45l11 1 17 4 21 7 11 5 14 6 8 5 12 6v3l4 1v2l8 2 1 3 6 1v2l9-1 4-2h3l3-4 5-1v-2l8-6h2l1-3 6-1 4-3 6-2 7-2 1-3 13-5 5-2 2-2 11-2 5-2 22-4h49l12 1 11 3 14 3 1 1 9 2 9 4 14 5 22 11v2l9 3 1 3 5 1 6 3v2l5 2 10 6 4 4 4 2v2l5 2 8 6 4 4 7 5 2 4-5 1-7-3v-2l-10-2h-2l-1-6-5-1-5-2-2-4-6-2-11-7-2-2-10-3-4-3-11-5-6-2v-2l-6-1-18-7-16-4-11-3-18-3h-47l-26 5-16 4-9 4-11 5-7 3-18 11-7 8-1 2-1 9-4 6-5 2h-23l-1 2v-2h-7l-5-4-4-1v-16h-3v6h-1l-1-9-4-4-11-6-17-9-14-6-33-8-8-2-21-2h-16l-17 1-11 3-13 2-5 2-9 2-8 3-14 5-13 5-8 5-8 4-16 11-16 12-11 8-6 3-13 1-5-1v-2l6-4h2l2-4 10-8 6-5h2v-2l12-8 3-3 17-11 4-4 6-1 17-9 5-2h4v-2l13-4 5-1v-2l11-3 17-4 10-3z" fill="#4467AD"/>
<path transform="translate(631,1246)" d="m0 0h24l4 9 4 11 4 8 4 11 4 8 3 9v2h2l1 7h2l3 8v4h2l2 6 3 7 2 6 6 16 4 8 3 7 1 5h2l4 6v3l9 1v2l-2 1h-46v-3l4-1 2-4h3v-9l-5-10-5-15-1-1h-72l-4 6-5 13-3 6-1 11 4 2 7 3-3 2h-45l1-4 5-1 5-6 8-15 5-11 4-12 4-9 2-6 7-14 1-5h2l2-8 4-9 1-5h2l3-10 3-8 5-12 4-8z" fill="#4366AD"/>
<path transform="translate(1082,1248)" d="m0 0h38l-1 4-6 4-1 2v53l100 1-1-52-1-6h-3l-2 2-1-4-5-4h46v4l-6 1-4 8-2 114 4 9 9 7v1h-43v-4l5-2h3l1-58h-102l1 54 1 3 2 1v3h6v3h-42l1-4 1-1h7l1-42 2-48v-34h-2l-2-8 1-3-4-2z" fill="#4165AD"/>
<path transform="translate(386,1245)" d="m0 0h92l46 1 1 27-2 1-2-6-6-4-6-2-89-1v49l70-1 7-3 3-4v34l-2-1v-2h-2l-1-4-6-1v-2h-69v49h105v-4l6-3h2l1-3v25h-150l1-3 7 1v-2l5-3 1-88v-42l-5-2-7-5z" fill="#4466AC"/>
<path transform="translate(909,1247)" d="m0 0h130l2 1v17h-5l-1 2-5-3-91-1v48h50l22 1v-3h4l1 5v13l1 6-3-3-10-2-66-1 1 48h103l4-5h3l2-6 2-19h1v16l-1 21-1 9-12 1h-130v-6l1-1h5l1-9v-121l-5-2-1-5z" fill="#4668AD"/>
<path transform="translate(788,1247)" d="m0 0h45l9 2 12 1 7 2 12 3 1 1v32h-1l-3-11-2-1v5h-1v-8l-9-2-5-1v-2l-17-2-7-2h-42l-1 1-9 2-6 4-4 5v12l4 8 10 5 19 4 15 4 18 3 15 4 10 3 1 3 4 1 3 2v2l4 2 3 3v3h2l3 7v22l-3 7-4 6-10 9-16 6-13 2-2 1h-42l-1-1-24-3-1-2-15-2-3-4v-16l2 1 1-6 5 2 5 4v2l5 1 9 3 15 2 2 1 9 1h34l15-5 7-5 4-6v-14l-4-7-6-5-15-5-29-6-19-3-18-6-10-6-7-8-2 2v-31l2-7 7-8 8-5 19-5z" fill="#4366AD"/>
<path transform="translate(1272,1247)" d="m0 0h43l3 1-1 4-6 1-2 5h-4l1 85 4 12 4 7 1 4 6 2 2 3 5 2 1 3h5v2l6-1v2l6 1h19l16-4 8-4 1-4 5-1 3-1 1-6 5-5 2-16 3-81h-4v-4l-3-1v-2h-3v2h-2l-1-5 45-1 2 1-1 3v-2l-5 1-2 4-4 3-1 6-2 80-1 2-1 10-5 12-6 7-9 9-8 4-12 5-20 5-21-1v2h-2v-2h-5l-3-2h-5l-9-4-5-2-2-2-5-1v-2l-4-2-5-5-8-9-1-7h-3l-2-9-2-12v-84h-4v-2l-3-1 1-3h-6z" fill="#4568AD"/>
<path transform="translate(1298,918)" d="m0 0h1l2 48 2 4 3 43 3 22 3 33h2l2 40 1-1 1-10h1l1 51 1 2 2-1 1 3v24l-4-2-5-3v5h-1l-2-7-5-4-5-5-5-4v-2h-3l-1 2-2-5-6-4-4-4h-3l-4-4-2-1v5h-1l-2-7-13-8-4-3-16-7-4-3-4-2-1-2-7-2v-2l-8-2-10-4-2 3-1-4-8-3-7-2-6-2-11-3-9-1-4-2-25-2-2 1v-2h-15l-5-1-1 2-2-3-12 2h-2v-2l-12 2-3 1-9 1-4 1-2 4v-4l-5 1-1 2v-2l-14 6-2 3v-3l-13 6-2 3v-2l-6 2v2l-4-1h2l2-7 1-22h1l1 24 9-4h2v-2l-3-1 6-3 20-7 1-6h1v6l13-4 2-2h9l4-1h7l1-3 1 2 13-1 2-2v3l6-1h13 3l13 1v-6h1v6l14 2v-9h1l1 9h5l8 3 1-2v2h5l1-17h1l1 18 12 3 2-2v3h4l2-3 1 5 7 2 5 1 2-2 1 7h7l2 2 5-1 1 3 4 1 1-3 1 4 5 2h2l3 3 3 1 1-2 1 5 6 1 6 5 1-3 1 4 6 1 1 5h7l1 4h6l4 4h2l1 3 7 3v2l5 1v-27l-2-35-2-5-2-41-1-12-2-6-1-56-1 24h-1l-1-7v-35h1z" fill="#9FA5AC"/>
<path transform="translate(671,911)" d="m0 0h1v12l-3 42-5 67-4 47-4 59 22-14 2-3 5-2 24-13 6-4 9-3 9-4 12-4 3-4v2l6-3 7-1 6-2 2-2 2 1 12-3 2-3v3l14-3h5l1-5h1v5l14-3 2-1h36l22 2 9 2 13 1v3h7l7 3 8 2v2l7 2 11 5 9 5 1 2-1 7-2-2v-6l-7-2-1 2-9-4-4-1-18-6-13-3-18-3-1 2-7-2-13-1-2 2v-2h-13l-2 1-5-1-1 2v-2l-16 3-15 3-16 3h-3v2l-8 2-24 8-11 4-10 6-12 6-15 9h-3v2l-15 10-20 14-13 10h-1l-1-22-1 5-1 19-7 8-4 3v-14l2-21h3l2-8 5-56 4-39 3-1 3-22 4-45 4-42z" fill="#C4C1BD"/>
<path transform="translate(901,697)" d="m0 0h1v28l-1 22 5 1 1-2 1 2 7 1 1 3 5 1 1-4 2 5 4 1 1-3 2 4 8 4 5 1 1 2 5 2v2l6 2 8 5 7 7v137l-2 42-2 3-3-63-2 4-3-52-3-50-1-9-5-7h-2l-2 3-2-6-5-2-2-4-9-3-2 1-1-3-30-10-21-5-7-1-29-1h-17l-17 1-20 4h-3l-1 3v-2l-10 2-23 7-27 12-2-1 2-6 22-10 3-3 20-7 24-7 8-1v-8h1l1 7 13-3 15-1v-8h1v8h5l2-4v4l11-1 4-2v2l7-1 5 1h3l6-1v2h7l7 2v-20h1v20l7-1 1 2 6 1v-27z" fill="#99A1A9"/>
<path transform="translate(1105,694)" d="m0 0h1v34l-1 14 13-1h3l4 1v-6l2 4v2l13 1 1-40h1v41l13 1v-2h2l1 2h5v2h8l7 2 10 3 1 3h2v-2h2v2l7 1 7 3 1 2h4l2-1 1 3 5 1v2l3 1-2 4-2 6-2-4v-2l-5 1v-3h-3v-2l-8-1-2-1-1 2v-2l-8-1-16-4-16-2-32-1h-26l-11 1-1 4-2-3-12 3-2 2v-2l-24 7h-2l-1 3-8 5-2 2v-2l-12 7-2 5-2-2-5 4-3 41-4 1v15l1 1v18h-3l-5 72-4 50-1 8h-1v-15l2-51 1-32v-33h-1v-85l5-5 6-4 6-2 1-3 9-4 6-3 2-4 1 3h3l1-4h2v2l5-2 1-2 7-2 1-13h1v12l7-2 6-1 1-6 2 4 5-2 1 3 6-1 2-2v2l4-1 1-2 1-18h1v20l13-2z" fill="#9BA2AA"/>
<path transform="translate(1500,1329)" d="m0 0h73l10 4 5 5 3 8v15l-3 9h-2l-2 4-6 2-2 1h-77v-47z" fill="#F3EDE4"/>
<path transform="translate(1500,1264)" d="m0 0h65l1 3 6 1 6 4 3 7h2v20l-4 5-4 4h-4l-1 5h-70z" fill="#F2ECE4"/>
<path transform="translate(1199,1248)" d="m0 0h46v4l-6 1-4 8-2 114 4 9 9 7v1h-43v-4l5-2h3l1-57h2v-3l-18-1-6-1v-2l-4 1-1-2 1-3 9-2 7-1v-1l-5-1v-1h15l-1-52-1-6h-3l-2 2-1-4z" fill="#4568AD"/>
<path transform="translate(1488,1254)" d="m0 0 11 1 5 2-1 5 10 1v1h-13v49h11v1l-7 1 12 4v2h2l-1 3-4 1v2l45 1v1l-58 1v45l-1 2h73v1l-72 1 1 4-1 4-2 2h-15l-1-9-4 1v-18l3-85-3 37h-1v-29l1-28h2v-2h2l1 2 2-3z" fill="#4467AD"/>
<path transform="translate(1438,1247)" d="m0 0 5 1-1 3v-2l-5 1-2 4-4 3-1 6-2 80-1 2-1 10-5 12-6 7-9 9-6 3h-2v-5-4l2-4 3-4h3l4-12 1-6-2-6-3 6-1-3 1-9 3-81h-4v-4l-3-1v-2h-3v2h-2l-1-5z" fill="#4668AD"/>
<path transform="translate(1298,918)" d="m0 0h1l2 48 2 4 3 43 3 22 3 33h2l2 40 1-1 1-10h1l1 51 1 2 2-1 1 3v24l-4-2-5-3v5h-1l-2-7-5-4-5-5-5-4v-2h-3l-1 2-2-5-6-4-5-5v-15l-4 2-2-1-1-7-10-2-3-2v-2l-3-2-3 1-1-4h-5l-2 1-1-6-2 1-5-2 1-4 5 2h2l3 3 3 1 1-2 1 5 6 1 6 5 1-3 1 4 6 1 1 5h7l1 4h6l4 4h2l1 3 7 3v2l5 1v-27l-2-35-2-5-2-41-1-12-2-6-1-56-1 24h-1l-1-7v-35h1z" fill="#C6C3BE"/>
<path transform="translate(805,1071)" d="m0 0h1v5l14-3 2-1h36l22 2 9 2 13 1v3h7l7 3 8 2v2l7 2 11 5 9 5 1 2-1 7-2-2v-6l-7-2-1 2-9-4-4-1-18-6-13-3-18-3-1 2-7-2-13-1-2 2v-2h-13l-2 1-5-1-1 2v-2l-16 3-15 3-16 3h-3v2l-8 2-24 8-11 4-10 6-12 6-15 9h-3v2l-15 10-20 14-3 2 1-17 2-5 5 1 4-2 2 9 1-7 9-2 3-3 2 2h3v-2l4-2 4-6 6-1 13-7 6-4h2l1-8 7-3 4-1v-6l5-5v2l6-3 7-1 6-2 2-2 2 1 12-3 2-3v3l14-3h5z" fill="#9AA1A9"/>
<path transform="translate(1126,1113)" d="m0 0h18l12 1 11 3 14 3 1 1 9 2 9 4 14 5 22 11v2l9 3 1 3 5 1 6 3v2l5 2 10 6 4 4 4 2v2l5 2 8 6 4 4 7 5 2 4-5 1-7-3v-2l-10-2h-2l-1-6-5-1-5-2-2-4-6-2-11-7-2-2-10-3-4-3-11-5-6-2v-2l-6-1-18-7-16-4-11-3-26-4-35-1 1-3h3l1-2v2h2v-2l4 1 3-1h13l5-2 3 2 2-2-4-2h-2v-2l-4-1-6-2-1 2-4-1v-2z" fill="#405B91"/>
<path transform="translate(636,1261)" d="m0 0 4 1 3 5 5 14 3 8 4 10v2h2v5l1 3 1 4 2-1 5 12 2 4v3h-60l1-7 4-8 4-11 4-8 4-10 6-16z" fill="#F2EDE4"/>
<path transform="translate(1053,1345)" d="m0 0h1v16l-1 21-1 9-12 1h-130v-6l1-1h5l1-9 1-14h1v24h11l8 1h12l10-2-13-2-3-3v-1l-6-1v-2l104-1 4-5h3l2-6z" fill="#405B90"/>
<path transform="translate(1239,610)" d="m0 0 3 1-1 4h2l1 6 1 67v44l4 3h3l-1 28-10 1-2 1-12-3v-27l7-3 1-64 1-32 2-25z" fill="#405B90"/>
<path transform="translate(386,1245)" d="m0 0h92l46 1 1 27-2 1-2-6-6-4-6-2-73-1-5-1 2-3 9-1 2 1v-3l-9-1-11-3-11-1-5 1-1 2h-4l-1 7h-4v-6l-5-2-7-5z" fill="#425C90"/>
<path transform="translate(1023,763)" d="m0 0 2 3v11l-3 5-6 3-4 3-1-6-2 1-1 5-4 77-1 34-7 90-1 8h-1v-15l2-51 1-32v-33h-1v-85l5-5 6-4 6-2 1-3z" fill="#99A1A9"/>
<path transform="translate(909,1247)" d="m0 0h130l2 1v17h-5l-1 2-5-3-17-1-72-1 4-2h5l1-2 10-1 1-2h2l1 2 1-2-9-2-14-1h-17l-4 2 1 4-1 2h-2v2h-2l-1-7-5-2-1-5z" fill="#3E598F"/>
<path transform="translate(533,1365)" d="m0 0h1v25h-150l1-3 7 1v-2l29 1h13l8-1h11l5-1h8l-2-3-4 1-4-1h-2l-1 2v-2l-11-1h-6l-5-1-7-2-2 1-2-2 2-2h103v-4l6-3h2z" fill="#3D588E"/>
<path transform="translate(1472,1248)" d="m0 0h94l5 2 2 4 3 3h-3l4 6 3 5 2 1v2l3 1 3 7v15l-3 7h-3l1-22h-2l-1 3-1-7-5-5-8-3-1-2-52-1-13-1 2-3h2v-3h-5v-2l-6 1-5-1-3 1-1 8h-1l-1-8h-2l1 3-4-1-1-5-6-1v-3z" fill="#435D90"/>
<path transform="translate(908,1432)" d="m0 0h10l9 6 4 6 2 8-1 10-3 6-8 8-4 1h-8l-6-3-6-7v-5h-2v-16l5-8 6-5z" fill="#4B6492"/>
<path transform="translate(1173,1432)" d="m0 0h17l6 3v2l5 2 3 4v23l-1 2h-2l-2 4-5 4-5 1h-18l1-30z" fill="#405A8F"/>
<path transform="translate(1579,1374)" d="m0 0h7v4l-5 2-6 2v4l2 6h-108l3-3 4-2 3-7 3-1 1 1 1 8h14l2-2v-6l-1-2 73-1z" fill="#3D588E"/>
<path transform="translate(816,1079)" d="m0 0 3 1 1 2 8-1 1 2-25 5-16 3h-3v2l-8 2-24 8-11 4-10 6-12 6-15 9h-3v2l-15 10-20 14-3 2 1-17 2-5 5 1 4-2 2 9 1-7 9-2 3-3 2 2h3v-2l4-2 4-6 6-1 13-7 6-4h2l1-8 7-3 4-1v-6l5-5v2l6-3 7-1 6-2 2-2 2 1 6-2h5l-4 2v3l-2 1h4l4 1 7-3 9-1h4l5-3z" fill="#C7C3BE"/>
<path transform="translate(1082,1248)" d="m0 0h38l-1 4-6 4-2 5-2-4v-5l-8 2-3-1-2 6v20l-1 8-1 23 1 16 1 3-1 58 9-1v3h3l3-7 4 4v3h6v3h-42l1-4 1-1h7l1-42 2-48v-34h-2l-2-8 1-3-4-2z" fill="#3D5990"/>
<path transform="translate(1123,1312)" d="m0 0h74l9 1-3 3-10 1-4 1h-3l1 4 12 2 15 2v3h-2v-2h-94l4-4 3-1 2 1-3-4-7-3v-2l-4-1z" fill="#3D588E"/>
<path transform="translate(740,1093)" d="m0 0h4v5l-7 3-4 1-1 8-8 4-8 5-8 4-4 1-5 6h-3v2l-4 1h-3l-9 3-2 8h-1l-1-9h-3-4l-2-1-1 5-1 14-2 3-3 1v-18l2-5 16-10 2-3 5-2 24-13 6-4 9-3 9-4z" fill="#979FA8"/>
<path transform="translate(1208,1091)" d="m0 0h2l1 4 3-1 1-3h3v3h7l2 2 5-1 1 3 4 1 1-3 1 8 4 1h3l1 5 1-1h5l1 5h2l1-2 4 3v2l11 3 2 1v7l4-1h3l-1 16h-2l-4-4-2-1v5h-1l-2-7-13-8-4-3-16-7-4-3-4-2-1-2-7-2v-2l-6-1-2-6-3-2-1 2-1-1v-6z" fill="#969EA8"/>
<path transform="translate(499,1302)" d="m0 0h1v34l-2-1v-2h-2l-1-4-6-1v-2h-20l-38-1 4-2 8-1 2-5-12-2-4-1-8-1-1-2 69-1 8-4z" fill="#3D588E"/>
<path transform="translate(1070,1431)" d="m0 0 9 2 3 16 4 13 3 5 3-11 4-10 3-13 1-1h8l1 7 1 22v16h-7l-1-27-4 13h-2v2h-2l-1 9-1 2h-7l-2-5-3-15-3-6-2 26-2 1h-6l2-37z" fill="#4D6593"/>
<path transform="translate(1011,1309)" d="m0 0h4l1 5v13l1 6-3-3-10-2-64-1 10-5h7l5-3-6-2-7-1-4-2-6-1v-1h72z" fill="#3D588E"/>
<path transform="translate(1409,1344)" d="m0 0 2 4 1 4-1 5-2 4-3 8h-3l-2 5-2 3-1 2 2 1-3 8-18 6-13 3-16-1-1-2 1-2h3v-2l6-1-8-4-7-3v-1l21-1 16-4 8-4 1-4 5-1 3-1 1-6 5-5 4-10z" fill="#415C91"/>
<path transform="translate(1243,641)" d="m0 0h1l1 47v44l4 3h3l-1 28-10 1-2 1-12-3v-27l4-1 1 2 1 18-1 7h15l-1-4-5-2-3-2-2 1-1-2v-9l1-6 8-2v-2h-3l-1 2-2-4 1-5z" fill="#4266AD"/>
<path transform="translate(717,1432)" d="m0 0h8l1 18v26h-5l-1-25-2-3-3 11-3 8-4 9h-6l-4-14-4-13-2-4-1 9-1 22h-4v-35l1-8h8l2 7 5 16 2 9 2 1 9-25z" fill="#476091"/>
<path transform="translate(1343,1433)" d="m0 0 6 1 3 10 3 9 3 10 3 14-7-1-5-8h-11l-4 10-7-1-1 2 1-6 12-36h2z" fill="#3E5A90"/>
<path transform="translate(950,1432)" d="m0 0h6l5 8v3h2l9 16v2h2v-29h7l1 1v36l-3 9-4-1v-3h-3l-6-12-9-14v-3h-2l-1 30h-4z" fill="#959DA7"/>
<path transform="translate(564,1432)" d="m0 0h11l7 6 2 4v7l-5 8-2 2-4 1h-9v16h-6v-42z" fill="#4B6392"/>
<path transform="translate(1138,1433)" d="m0 0h7l2 4 3 12 2 12 4 11v5h-5l-3-5-1-5-12 1-4 6-1 3h-5l1-11 4-9 1-7 3-9 3-7z" fill="#4D6594"/>
<path transform="translate(1511,1313)" d="m0 0h58l-5 4-10 3-4 1-5 1 3 1 12 2v2l4 1h-54l3-1v-2l4-2 1-2h-2v-2l-10-2-5-2v-1z" fill="#3D588E"/>
<path transform="translate(728,1145)" d="m0 0h5v2l-7 4v4l-6 2-1 2-4 2-4 1-5 5-10 6-3 3h-2l-1 3-7 3-4 4-9 5-9 3h-3l2-4 4-1 2-4 10-8 6-5h2v-2l12-8 3-3 17-11 7-2z" fill="#405B90"/>
<path transform="translate(910,1437)" d="m0 0h6v2l5 2 4 5 1 3v10l-6 9-6 4-6-1-7-11v-11l2-6z" fill="#F1ECE3"/>
<path transform="translate(788,1247)" d="m0 0h45l5 1v2h-4l1 3-3 1-11-1-2-1-4 2h-19l-6-1-14 3h-5l-1 3-10 5-6 7-3 6h-2l1 12 1 6 1 5-4-1-1-2v-24l2-7 7-8 8-5 19-5z" fill="#415C90"/>
<path transform="translate(655,1044)" d="m0 0h1v21l-4 57-1 14-1 30-7 8-4 3v-14l2-21h3l2-8 5-56 3-29z" fill="#98A0A9"/>
<path transform="translate(1096,1114)" d="m0 0h24l1 3h-2v-2h-2v3h-12l-16 2-13 4-9 2-14 5-19 9-14 7h-6l-6 3h-3l2-4 5-2 1-3 6-1 4-3 6-2 7-2 1-3 13-5 5-2 2-2 11-2 5-2 10-2z" fill="#435E93"/>
<path transform="translate(1180,1438)" d="m0 0h6l12 6 2 4v12l-1 3h-2l-2 4-4 3-11 2z" fill="#F1ECE3"/>
<path transform="translate(1318,1097)" d="m0 0h1l1 51 1 2 2-1 1 3v24l-4-2-5-3v5h-1l-2-7-5-4-1-2v-19l4 1 3 1 1 2 3-41z" fill="#959DA7"/>
<path transform="translate(1298,918)" d="m0 0h1l2 48 2 4 3 43 3 22 1 18-2-1-2-17-1 22h-1l-3-38-2-6-1-56-1 24h-1l-1-7v-35h1z" fill="#C8C4BF"/>
<path transform="translate(641,1433)" d="m0 0h19l6 5 1 3v7l-2 3h-2l-2 4h-2v2h2l2 8h2l3 6v5h-5l-9-19-6-2v-2l9-2 3-4 1-7-5-2-10-1 1 17-1 22h-5z" fill="#425C8F"/>
<path transform="translate(1026,762)" d="m0 0h1v13h3l7-3 5-3 6-1-2 1-1 3-8 5-2 2v-2l-12 7-2 5-2-2-5 4-3 41-4 1v15l1 1v18h-3l-1 14h-1v-16l4-77 2-6h2l2 5 6-5h3l2-5v-14z" fill="#C8C4BF"/>
<path transform="translate(1290,1433)" d="m0 0h22l-1 3-1-2-9 2h-3l2 2h-3v15h14l-2 4h-13v14l17-1v8h-24v-32z" fill="#435E92"/>
<path transform="translate(631,1246)" d="m0 0 20 1v1h-18v2h-3l-1 2-4 1-3 7-4 15-1 2h-2v5h-2l-3 9-2 4h-2l-1 7-8 17-5 10h-2l3-10 2-8h2l1-7 1-3h2l2-15h2l3-10 3-8 5-12 4-8z" fill="#3F5A91"/>
<path transform="translate(827,1432)" d="m0 0h14l1 2-1 4h-12l-1 1v7l12 9 3 3v11l-1 3-5 2-3 2h-14l-1-4v-4l7 1 5 2 6-5-1-7-5-1-8-6v-2l-3-1v-10l4-5z" fill="#556B95"/>
<path transform="translate(1417,1431)" d="m0 0 3 2v3l3 1 6 11 2-2 6-12 1-1h7l-1 5-8 14-1 3h-2v19l-2 5-4-2-1-3-1-16-2-5v-4h-2l-1-3-4-3-1-9z" fill="#476092"/>
<path transform="translate(820,1112)" d="m0 0h30l13 1-2 2-6 1-7 1-1 1-10 1h-9l-5 1h-2v-2l-8 2v-2l-10 1h-4v2l-9 3-17 4-9 3-2-1 7-4 1-3 11-3 17-4 10-3z" fill="#465F93"/>
<path transform="translate(1e3 1433)" d="m0 0h14l3 1v5l-14-1 2 10 3 2v2h3v2l4 1 3 3v12l-5 5-8 2-6-1v-2h-4l1-5 6 1h4l5-2 1-5-12-9-4-4-1-3v-7z" fill="#516894"/>
<path transform="translate(1222,1433)" d="m0 0h22v4h-16v16h16l-1 4h-15v15h16v5h-22z" fill="#506793"/>
<path transform="translate(1383,1433)" d="m0 0h14v8l-4-1-1-1h-6l-4 3 1 5 14 10 1 4v11l-4 4-3 1h-14l-1-1v-6l15 1v-2h2l-2-7-6-4v-2l-4-1-5-4v-8l4-9z" fill="#516894"/>
<path transform="translate(1018,1075)" d="m0 0h1l1 24 9-4h2v-2l-3-1 6-3 20-7 1-6h1v6l13-4 2-2h9l4-1h7l-2 5 1 2-12 2-3 1-9 1-4 1-2 4v-4l-5 1-1 2v-2l-14 6-2 3v-3l-13 6-2 3v-2l-6 2v2l-4-1h2l2-7z" fill="#B1B4B6"/>
<path transform="translate(788,1432)" d="m0 0 12 1 2 3-1 1-12 1-4 5v2l4 2 12 9 3 4v6l-5 7-4 3h-13l-3-5 1-2 3 1v2l9-1 2-4 3-3-5-5-12-9v-11l4-5z" fill="#4B6392"/>
<path transform="translate(895,1077)" d="m0 0h7v3h7l7 3 8 2v2l7 2 11 5 9 5 1 2-1 7-2-2v-6l-7-2-1 2-9-4-4-1-18-6-13-3-18-3-1 2-7-2-13-1-2 2v-2h-13l-2 1-5-1 3-2 5-1h20l17 2 13 2v-5z" fill="#C2C0BC"/>
<path transform="translate(861,1432)" d="m0 0h19v4h-7v36h5l1 4h-17l-1-5 5-1v-32l-5-1-1-4z" fill="#496191"/>
<path transform="translate(846,633)" d="m0 0h4v2l-6 3v-2h-2v2l-7 1-4 2h-5v2l-12 4-1 5h-2l1 6-1 18 1 3-1 8v3l-1 1 15-1-1 3-15 3h-3l-1-50 20-7z" fill="#3F598F"/>
<path transform="translate(601,1432)" d="m0 0h21v4h-16v16h15l-1 4h-14v16l16-1v4l-7 1h-11l-3-1z" fill="#455E90"/>
<path transform="translate(1438,1247)" d="m0 0 5 1-1 3v-2l-5 1v2h-7l-1 9-2-4v-2l-7-1-5 1-1 4-1 16-1 3-1 21-1 8h-1v-49h-4v-4l-3-1v-2h-3v2h-2l-1-5z" fill="#425E95"/>
<path transform="translate(1100,1432)" d="m0 0h8l1 7 1 22v16h-7l-1-27-2 5-4-1v-8l3-13z" fill="#476092"/>
<path transform="translate(1213,1330)" d="m0 0 2 4 1 16 1 7 2 12v15l4 6 2 1 1-2 2-3h2v4h12l2 2h-41v-4l5-2h3z" fill="#3E5990"/>
<path transform="translate(721,1115)" d="m0 0m-1 1m-3 1h3l-1 3-14 8h-3v2l-15 10-20 14-3 2 1-17 2-5 5 1 4-2 2 9 1-7 9-2 3-3 2 2h3v-2l4-2 4-6 6-1z" fill="#C8C4BF"/>
<path transform="translate(1343,1433)" d="m0 0 6 1 3 10 3 9 3 10 3 14-7-1-5-8-6-2 2-1v-2l3-2-1-11-1-7-3 1-1-2-2 2h-2l1-7h2z" fill="#486295"/>
<path transform="translate(717,557)" d="m0 0h3v2l-23 6-17 4-9 3-8 3-6 4-2 2v6l2 1-12-2-5-3v-7l14-4 37-9 17-4z" fill="#3F5A90"/>
<path transform="translate(1480,1256)" d="m0 0h2l1 2v6h2l1 8v16l-2 18-2 27h-1v-55l-3 37h-1v-29l1-28h2z" fill="#3D5990"/>
<path transform="translate(969,495)" d="m0 0h23v1l-11 1-9 3-10 1-1 1-14 2-10 3-16 4-50 12-3-1 1-2 20-5 10-2 9-3 26-6 17-5z" fill="#415C91"/>
<path transform="translate(499,1302)" d="m0 0h1v34l-2-1v-2h-2l-1-4-6-1v-5l-9-1-4-3v-2l4-2 10-2 2 1 1-4-3-1 7-3z" fill="#4B6CAD"/>
<path transform="translate(745,1432)" d="m0 0h15l3 1-1 3h-4l-1 3-1 32 7 1v3h-19l1-4h6l-1-34-5-3z" fill="#486191"/>
<path transform="translate(533,1365)" d="m0 0h1v24h-10l-1-2h-9l-7-2h-5l2-4h7v-2h7l8-4-1-4 6-3h2z" fill="#4466AD"/>
<path transform="translate(1243,641)" d="m0 0h1l1 47v45h-4l-1 2-2-4 1-5z" fill="#4165AD"/>
<path transform="translate(656,1108)" d="m0 0h1v15l-1 15 6-3-1 4v17l2-1-2 4-8 5-1-22-1 5h-1v-11l2-25h1l1 15z" fill="#C3C0BD"/>
<path transform="translate(1306,1034)" d="m0 0h1l2 18 2 5 1 11h2v19l-2-3-1 3-1-3h-2l-1 4-1-11-2-5v-15l1-22z" fill="#C4C1BD"/>
<path transform="translate(964,776)" d="m0 0 7 5v137l-1 27h-1v-60l-1-9v-36l1-41v-17l-3-1-1 3z" fill="#C8C4BF"/>
<path transform="translate(1292,1360)" d="m0 0 4 1 10 10 11 9 9 5v2l6 2-3 1-5-1-3 1-5-2-2-2-5-1v-2l-4-2-5-5-7-8z" fill="#415C93"/>
<path transform="translate(671,911)" d="m0 0h1v12l-3 42-5 67-1 5h-1v-34l3-32 4-42z" fill="#A3A8AE"/>
<path transform="translate(567,1376)" d="m0 0 5 1 1 2h-2l3 7h2v2l6-2 2 1 13 1 3 2-3 1h-45l1-4 5-1 5-6z" fill="#4D6592"/>
<path transform="translate(950,1432)" d="m0 0h6l5 8v3h2l5 9-1 2-5-7h-4l-1-2h-2l-1 30h-4z" fill="#445E91"/>
<path transform="translate(1199,1248)" d="m0 0h46v2l-14 3-6 2v-2l-7 3-4 7h-2l-2-9h-3l-2 2-1-4z" fill="#3E5990"/>
<path transform="translate(846,1373)" d="m0 0 2 1-6 5-2-1v2l-6 1-9 4h-10l-5 1h-8l-7-3 1-3-2-1 37-1z" fill="#425C91"/>
<path transform="translate(523,1246)" d="m0 0h1l1 27-2 1-2-6-6-4-6-2 1-5-6-1 1-3 4-1 2-3 3-1h7l1 2z" fill="#4467AD"/>
<path transform="translate(1279,1248)" d="m0 0h35v2h-3v2h-6v2h-7l-4 1h-6l1 4-2 8-1 20h-1l-1-31-4-1v-2l-3-1z" fill="#3D588F"/>
<path transform="translate(768,1081)" d="m0 0 4 3 2 3-3 3-1 3h-3v-2h-2l-1 4-5 1-2-4-1 5-1 2-4-1v-2h-3l-1 7-2-1v-11l3-4v2l6-3 7-1 6-2z" fill="#99A1A9"/>
<path transform="translate(1228,734)" d="m0 0 3 1 1 1 1 18-1 7h16v-22l1-3 3-1-1 28-10 1-2 1-12-3v-27z" fill="#526FAA"/>
<path transform="translate(824,1123)" d="m0 0 8 1h21l1 3 5-1 1-2 6 1-1 3-5 1h-31l-17 1-2 1h-9l-3-2 11-3h6l4-1z" fill="#3F5A90"/>
<path transform="translate(1175,1119)" d="m0 0 6 1 1 1 9 2 9 4 14 5 22 11-4 2h-4v-2h-2l-1-2-24-8-7-3-4-1-1-1-3 1-2-4h-6l-3-3z" fill="#506FAC"/>
<path transform="translate(1318,1097)" d="m0 0h1l1 51 1 2 2-1 1 3v24l-4-2-5-3v5h-1v-6h2l1-33v-30z" fill="#C8C4BF"/>
<path transform="translate(646,1437)" d="m0 0h10l5 3v7l-4 5-9 1v2l2 1h-3v20h-1z" fill="#E3DFD8"/>
<path transform="translate(1235,611)" d="m0 0 2 3v22l-1 10h-2v14l-2 38-1 25-1 9h-1l1-43 3-65z" fill="#AAADB1"/>
<path transform="translate(932,602)" d="m0 0h24l34 1v1l-67 1-22 2-4 1-14 1-36 6-4 1h-8l4-2 36-6 27-4z" fill="#3E5990"/>
<path transform="translate(399,1260)" d="m0 0h1v47l1 34v36l-3 2v-84z" fill="#9BA2AA"/>
<path transform="translate(567,1435)" d="m0 0h4l6 9v8l-5 4h-8v-18z" fill="#F0EBE2"/>
<path transform="translate(806,1257)" d="m0 0h14l5 1 11 1 5 3v2l11 1 2-2 1 3-4 2-15-2-7-2-34-2v-1l7-2z" fill="#3F5A91"/>
<path transform="translate(895,1077)" d="m0 0h7v3h7l1 2h-2v6l-14-2-15-3-1 2-7-2-13-1-2 2v-2h-13l-2 1-5-1 3-2 5-1h20l17 2 13 2v-5z" fill="#C9C5C0"/>
<path transform="translate(925,1145)" d="m0 0h6l20 10 6 7v6h-2v-2h-2l-4-4-11-6-14-8z" fill="#425C90"/>
<path transform="translate(791,1389)" d="m0 0 9 1h32v2l5-1v2l-7 2h-42l-2-3 7 1v-2h-2z" fill="#3F5A90"/>
<path transform="translate(1053,1345)" d="m0 0h1v16l-1 21-1 6-5 1-1-6h-3v2h-3l-2-4 5-4 2 2 1-5-3-1 3-3h3l2-6z" fill="#4064AD"/>
<path transform="translate(630,1340)" d="m0 0 6 1 2-1 9 2 14 2 10 1v1h-68v-1l9-1 4-2 9-1z" fill="#3D588E"/>
<path transform="translate(1438,1433)" d="m0 0h7l-1 5-8 14-2 3v-3l-5-1-3-1-3-5-3-1v-2h-2l1-2 2-3h2l6 11 2-2 6-12z" fill="#909AA9"/>
<path transform="translate(747,1362)" d="m0 0h1l2 7 5 5-3 5 3 4 2 1-1 2 10 1v2l9 1v1h-12l-1-2-15-2-3-4v-16l2 1z" fill="#3E598F"/>
<path transform="translate(1090,1297)" d="m0 0h1l1 37v45l-2 1-1-11h-1v-24z" fill="#6B82AE"/>
<path transform="translate(1566,1265)" d="m0 0h9v2l5 1 2 1v2l3 1 3 7v15l-3 7h-3l1-22h-2l-1 3-1-7-5-5-8-3z" fill="#3D5990"/>
<path transform="translate(646,1134)" d="m0 0h1l-1 37-7 6v-14l2-21h3z" fill="#C8C4BF"/>
<path transform="translate(804,1320)" d="m0 0 10 2 13 2 12 3 8 5-2 2-6-1-39-9 1-2h3z" fill="#3F5A91"/>
<path transform="translate(1100,1432)" d="m0 0h8l1 7 1 22v16h-7l-1-27-2 2 2-9 2-2v35h2v-35l1-8h-3v2l-3-1z" fill="#979FA9"/>
<path transform="translate(802,645)" d="m0 0 3 1 1 4v45l-4-2z" fill="#959DA7"/>
<path transform="translate(681,1387)" d="m0 0h40l3 1v2l-2 1h-46v-3z" fill="#556B95"/>
<path transform="translate(1e3 1433)" d="m0 0h14l3 1v5l-14-1 2 10 3 3-2 1-8-5-1 2-2-2v-7z" fill="#546A95"/>
<path transform="translate(861,522)" d="m0 0h6v2l-17 3-11 3-9 2-4 1-9 2-6 2-13 3-1 1-11 1 1-2 47-12 15-4z" fill="#3D5991"/>
<path transform="translate(1013,1279)" d="m0 0h1v28l2 1 1-5 1-8h1v40l-2 10h-1l-1-14 1-1-1-3v-18l-4-1 1-6z" fill="#A3A8AE"/>
<path transform="translate(1186,759)" d="m0 0 8 2 5 3v-2h6v3l2-2 1-2h4l2-1 1 3 5 1v2l3 1-2 4-2 6-2-4v-2l-5 1v-3h-3v-2l-8-1-2-1-1 2v-2l-8-1-3-1z" fill="#A3A8AE"/>
<path transform="translate(610,1331)" d="m0 0h59l-4 2-13 1-6 1-5 1-8 1v-2h-10l-13-3z" fill="#3D588E"/>
<path transform="translate(644,1267)" d="m0 0h3l3 6 2 7 4 6 2 4h-2l3 7 1 6-2 2-1-4h-2l-6-14-5-15z" fill="#456095"/>
<path transform="translate(1286,1129)" d="m0 0 2 1 2 4 2 2 1-2h2v18h-3l-7-5v-17z" fill="#969FA8"/>
<path transform="translate(1188,1138)" d="m0 0h7l9 3 10 3 11 5 11 4 5 4v3l3 1-5-1-10-5-10-4v-2l-6-1-18-7-7-2z" fill="#5875AD"/>
<path transform="translate(1026,762)" d="m0 0h1v13h3l7-3 5-3 6-1-2 1-1 3-8 5-2 2v-2l-12 7-2 5-2-2-4 3h-2l2-4 4-4h3l2-5v-14z" fill="#C7C3BE"/>
<path transform="translate(1018,1075)" d="m0 0h1l1 24 9-4h2v-2l-3-1 12-3 13-3-1 3-12 5-2 3v-3l-13 6-2 3v-2l-6 2v2l-4-1h2l2-7z" fill="#BDBBBA"/>
<path transform="translate(1202,1086)" d="m0 0 7 1 6 2 2-2v4h-2l-1 4-4 1v-5h-2v8h4l2 2v4l-10-3-3-1z" fill="#C8C4BF"/>
<path transform="translate(1173,1432)" d="m0 0h17v1h-15l1 3v23l-1 18h-4l1-30z" fill="#A7ABB0"/>
<path transform="translate(1141,1441)" d="m0 0 3 3 3 13v4h-11v-8l3-10z" fill="#EAE6DE"/>
<path transform="translate(1e3 824)" d="m0 0h1l-1 35-1 19h-1l-1-12h-1v-23l3-18z" fill="#C8C4BF"/>
<path transform="translate(1238,1100)" d="m0 0 6 2h2l3 3 3 1 1-2 1 5 6 1 6 5 1-3 1 4 6 1 1 5-14-4-1-3-3-2-3 1-1-4h-5l-2 1-1-6-2 1-5-2z" fill="#C8C4BF"/>
<path transform="translate(1015,1312)" d="m0 0 1 2-1 10h-2v2h-3v-2h-6l-10-4 2-2 8-1 7-4z" fill="#4165AE"/>
<path transform="translate(860,1433)" d="m0 0 2 2 5 2 3-1v17l-1 17-5 1 2-1v-32l-5-1z" fill="#A2A7AD"/>
<path transform="translate(739,766)" d="m0 0 3 1-3 2 3 1v2l-15 7-9 3 2-7z" fill="#C8C4BF"/>
<path transform="translate(1290,1433)" d="m0 0h1l1 9 1 1v16l-1 17-3 2v-32z" fill="#99A1A9"/>
<path transform="translate(666,989)" d="m0 0h1l-1 17-2 26-1 5h-1v-34l2-12z" fill="#A1A7AD"/>
<path transform="translate(1010,671)" d="m0 0 33 2 31 4 6 1v1h-13l-28-4h-27z" fill="#456095"/>
<path transform="translate(878,754)" d="m0 0h5l1 3 12 1 7 2 11 4 3 3-3 1-19-6-21-5z" fill="#C8C4BF"/>
<path transform="translate(965,1455)" d="m0 0 4 4 4 5 3-2 3 11v5l-4-1v-3h-3l-6-12-2-3z" fill="#4E6696"/>
<path transform="translate(1478,1260)" d="m0 0 2 4 2-3-1 17-3 37h-1v-29z" fill="#A1A7AD"/>
<path transform="translate(1243,641)" d="m0 0h1l1 47v40h-1l-1-22-1-7z" fill="#A5AAAF"/>
<path transform="translate(1055,1076)" d="m0 0h1v6l7-1-1 2-5 1h7v2l-2 1-2 4v-4l-5 1-1 2-1-4-9 3h-4l-1 2-8 1 3-3 20-7z" fill="#A4A9AE"/>
<path transform="translate(664,1133)" d="m0 0 3 1-1 5-1 14-2 3-3 1v-18l2-5z" fill="#959EA7"/>
<path transform="translate(1251,735)" d="m0 0h1l-1 28-10 1-2 1-9-2v-1l18-1v-22l1-3z" fill="#98A0A8"/>
<path transform="translate(844,1079)" d="m0 0h20l17 2 9 2v1l-11-1-1 2-7-2-13-1-2 2v-2h-13l-2 1-5-1 3-2z" fill="#C8C4BF"/>
<path transform="translate(906,511)" d="m0 0 2 1-1 2-26 7-13 2 1-3 20-5 10-2z" fill="#3D5A94"/>
<path transform="translate(1041,1247)" d="m0 0h1l1 5h1v23l-2 1-4-6-3-3 1-2h5l-1-9z" fill="#C1BEBB"/>
<path transform="translate(1344,1445)" d="m0 0h3l2 10v6h-9l2-9z" fill="#F3EDE4"/>
<path transform="translate(1311,1470)" d="m0 0h2v8h-22v-1h21l-1-2-13 1-1-5z" fill="#979FA8"/>
<path transform="translate(602,1291)" d="m0 0h1v6l-2 4h-2l1 3-3 7h-2l-2 10-3 8h-3l-2 2 1-4 7-14 1-5h2l2-8z" fill="#5975AD"/>
<path transform="translate(930,671)" d="m0 0h38v1l-26 2-18 1h-11v-1l17-2z" fill="#3D5890"/>
<path transform="translate(1348,1434)" d="m0 0 2 2 3 9 3 12 2 6-1 3-3-3v-5l-2-1-2-7-4-11 2-2z" fill="#8995A5"/>
<path transform="translate(1217,1091)" d="m0 0 1 3h7l2 2 5-1 1 3 4 1 1-3-1 5-2 2h-3l-2-3-5 1-1-3-4 1-2 1z" fill="#C8C4BF"/>
<path transform="translate(1186,759)" d="m0 0 8 2 5 3v-2h6v3l2-2 1-2 3 2h-2l3 4v2h-3v-2l-8-1-2-1-1 2v-2l-8-1-3-1z" fill="#C8C4BF"/>
<path transform="translate(1342,1440)" d="m0 0 2 3h2v2h-2l-2 10-2 6h8v1h-9l-2-1 1-7 1-11z" fill="#98A0A9"/>
<path transform="translate(1233,771)" d="m0 0 2 1v3l4 2h-4l-1 6-2 40h-1v-45l-2-2h3l-1-4z" fill="#C8C4BF"/>
<path transform="translate(1272,1247)" d="m0 0h43l3 1-1 4-6 1-2 5-3-1 3-3 2-4h3v-2h-35l-1 2-6-1z" fill="#B9B9B8"/>
<path transform="translate(1103,1246)" d="m0 0 17 1v1l-37 1 4 3v6l-2-1-1-4-2-1v2h-2l-1-5h-6v-2z" fill="#A7ABAF"/>
<path transform="translate(861,522)" d="m0 0h6v2l-17 3-11 3-9 1-1-2 18-4 6-2z" fill="#445F94"/>
<path transform="translate(1095,1449)" d="m0 0 3 4 1 7-1 3h-2l-1 2-2-1-1 2h-2l1-8z" fill="#98A0AA"/>
<path transform="translate(955,1445)" d="m0 0 2 1v30h-6l-1 3v-4h4v-27z" fill="#A8ACB1"/>
<path transform="translate(961,870)" d="m0 0 3 4 1 10v16l-3 4-1-20z" fill="#C8C4BF"/>
<path transform="translate(1313,581)" d="m0 0 9 1 1 1v6l-7 1-5-3z" fill="#415D94"/>
<path transform="translate(576,1354)" d="m0 0 3 1v7l-3 8h-2v3l-3 1 2-13z" fill="#3D5990"/>
<path transform="translate(403,1336)" d="m0 0 3 4-1 7-1 24v9l-5 1 1-4h2v-24z" fill="#3D588F"/>
<path transform="translate(1350,1466)" d="m0 0h4l5 1 2 10-7-1-5-8z" fill="#828EA3"/>
<path transform="translate(1335,1449)" d="m0 0 2 3-3 11-3 13h3l-1 2-6-1-1 2 1-6z" fill="#A6AAAF"/>
<path transform="translate(1292,1432)" d="m0 0h21v6l-4 1h-12l1-4 12-1 1 1 1-2h-20z" fill="#A7ABAF"/>
<path transform="translate(1065,612)" d="m0 0 15 1 2 1v4h-11l-5-2z" fill="#EAE5DE"/>
<path transform="translate(1468,1389)" d="m0 0 4 1-1 1 61 1v1h-64z" fill="#909AA6"/>
<path transform="translate(1610,1338)" d="m0 0 2 2 2 5v19l-3 1z" fill="#B5B6B6"/>
<path transform="translate(944,763)" d="m0 0 6 2v2l6 2 6 4 1 3-4-1v2h-2l-2-4-4-2-3-1-4-4z" fill="#C8C4BF"/>
<path transform="translate(1053,1345)" d="m0 0h1v16l-1 21h-1l-1-9-4-2v2l-4 1 3-4h3l2-6z" fill="#A6AAB1"/>
<path transform="translate(1480,1256)" d="m0 0h2l1 2v26l-1 19h-1v-39l-2 2-1-8h2z" fill="#637CAF"/>
<path transform="translate(781,541)" d="m0 0h4v3l-9 1-24 6-3-1 8-3z" fill="#415C92"/>
<path transform="translate(1306,1034)" d="m0 0h1l2 19-1 5-3-1v-22z" fill="#949DA7"/>
<path transform="translate(671,911)" d="m0 0h1v12l-2 27-3 2 1-15z" fill="#B4B5B6"/>
<path transform="translate(1182,1435)" d="m0 0h7l6 3 3 3-1 3-11-5-5-1z" fill="#949DA7"/>
<path transform="translate(1161,684)" d="m0 0h1v13l-5 2-6-3 5-4 2-1 1-3h2z" fill="#445E91"/>
<path transform="translate(1006,1438)" d="m0 0h1l2 10 3 3-2 1-8-5-1 2-2-2v-7l3 3v3l1-1v-5l2 1z" fill="#979FA9"/>
<path transform="translate(1405,1258)" d="m0 0h4l-1 7-3 28h-1v-13z" fill="#B8B8B7"/>
<path transform="translate(1581,1279)" d="m0 0h2v20l-3 2v-19z" fill="#B0B3B6"/>
<path transform="translate(1172,749)" d="m0 0 10 1 7 3-1 3-10-2-7-2z" fill="#B4B5B5"/>
<path transform="translate(1423,1451)" d="m0 0 3 3 3 4v17l2 4-4-2-1-3-1-16z" fill="#A7ABB0"/>
<path transform="translate(780,1445)" d="m0 0 8 6v2l5 2 2 3-3 1-12-9z" fill="#7B89A0"/>
<path transform="translate(1129,1080)" d="m0 0h9l4 2v3h-10l-4-2z" fill="#C8C4BF"/>
<path transform="translate(803,666)" d="m0 0h1l1 10v18l-3-1v-23z" fill="#C6C2BE"/>
<path transform="translate(1108,1080)" d="m0 0h17l2 2v2h-15l-5-1z" fill="#C8C4BF"/>
<path transform="translate(881,1075)" d="m0 0 12 2-1 4-16-2-3-1v-2h7z" fill="#C6C2BE"/>
<path transform="translate(1052,738)" d="m0 0h1v12l7-2h6l-2 2-11 3-10 3 1-3 7-2z" fill="#C8C4BF"/>
<path transform="translate(1195,1466)" d="m0 0v3l-5 5-10 2v-4l13-4z" fill="#8C98A9"/>
<path transform="translate(1089,1253)" d="m0 0 2 1 1 4v25h-1l-1-20h-2l-2-8z" fill="#6980AB"/>
<path transform="translate(1417,1431)" d="m0 0 3 2v3h2l-1 5-1 1 2 4-5-2-2-7 1-4z" fill="#60749A"/>
<path transform="translate(846,633)" d="m0 0h4v2l-6 3v-2h-2v2l-7 1-4 2h-5l1-2z" fill="#3D5890"/>
<path transform="translate(1188,1091)" d="m0 0 5 1 1 2 5 1 1 5-9-3-6-1z" fill="#C8C4BF"/>
<path transform="translate(724,1432)" d="m0 0h1l1 18v14h-1v-11h-2v-18z" fill="#9CA3AB"/>
<path transform="translate(1225,1103)" d="m0 0 4 2-1 5h2v2l5 2-1 2-6-3-1-2-7-2 1-2h2z" fill="#C8C4BF"/>
<path transform="translate(1283,1177)" d="m0 0 6 1 8 7 7 5-2 2-8-6-3-1v-2h-2l-1-2-5-3z" fill="#7487AA"/>
<path transform="translate(1181,1080)" d="m0 0 13 4v3h-3l-2 2-2-3-6-1z" fill="#C8C4BF"/>
<path transform="translate(1103,1441)" d="m0 0h1v36h-1l-1-27-2 2 2-9z" fill="#99A0A9"/>
<path transform="translate(1304,1191)" d="m0 0 3 1 3 6h-6l-4-2-3 3-3-7 8 2 3-1z" fill="#A4A9AE"/>
<path transform="translate(1086,1077)" d="m0 0h4v4l-4 2-9-3v-2z" fill="#CBC7C2"/>
<path transform="translate(717,557)" d="m0 0h3v2l-18 5h-5l1-2 13-4z" fill="#3E598F"/>
<path transform="translate(655,1107)" d="m0 0h1v13l-1 9-2-3v-15z" fill="#F5EFE6"/>
<path transform="translate(473,1380)" d="m0 0 7 1-1 4-2 1-9-1-1-2 2-1z" fill="#4064AC"/>
<path transform="translate(602,1291)" d="m0 0h1v6l-2 4h-2l1 3-3 7h-3v-3h2l2-8z" fill="#5170AD"/>
<path transform="translate(1114,526)" d="m0 0 10 1 7 2-1 2h-8l-7-3z" fill="#5270AB"/>
<path transform="translate(884,516)" d="m0 0h5l-4 2-1 2-13 3-3-1 1-2z" fill="#435F95"/>
<path transform="translate(1076,1441)" d="m0 0h1l1 9h-1l-2 26h-1l-1-18 1-1z" fill="#9FA5AC"/>
<path transform="translate(1392,1378)" d="m0 0 4 2-5 2-6 5h-4v-3l3-2h4v-2z" fill="#4165AE"/>
<path transform="translate(1111,1248)" d="m0 0h9l-1 4-7 4z" fill="#556FA1"/>
<path transform="translate(1051,1086)" d="m0 0h2l-1 3-10 4h-6v-3l4-1z" fill="#CBC7C2"/>
<path transform="translate(1018,1075)" d="m0 0h1l1 27-3 1v2l-4-1h2l2-7z" fill="#C5C2BD"/>
<path transform="translate(1036,1265)" d="m0 0h7v11l-4-5-4-4z" fill="#A0A7AE"/>
<path transform="translate(1589,1260)" d="m0 0 7 2 3 5-1 3-5-2-3-5z" fill="#3F5A90"/>
<path transform="translate(1353,1448)" d="m0 0h1l2 9 2 6-1 3-3-3v-5l-2-1z" fill="#A0A6AD"/>
<path transform="translate(873,1256)" d="m0 0h1v32h-1l-3-12h2z" fill="#9AA2AB"/>
<path transform="translate(1438,1247)" d="m0 0 5 1-1 3v-2l-3 1-32-1v-1z" fill="#9CA3AB"/>
<path transform="translate(998,942)" d="m0 0h1v10l-2 13h-1v-17z" fill="#A6AAAF"/>
<path transform="translate(565,1377)" d="m0 0 2 2v3l-5 3-5 5-5 1 1-4 5-1 5-6z" fill="#5C75A4"/>
<path transform="translate(1566,1265)" d="m0 0h9v2h3l1 4-2 1-7-4-4-1z" fill="#4B6BAD"/>
<path transform="translate(893,1076)" d="m0 0h2v8l-12-2 2-1v-2l7 1z" fill="#969EA8"/>
<path transform="translate(1018,1321)" d="m0 0h1v14l-2 10h-1l-1-14 2 1z" fill="#B5B6B6"/>
<path transform="translate(1235,560)" d="m0 0 11 1 8 2 4 2v1l-9-1-5-2-9-2z" fill="#3D5890"/>
<path transform="translate(666,989)" d="m0 0h1l-1 17-3-4v-7l2-5z" fill="#AAAEB1"/>
<path transform="translate(744,1359)" d="m0 0h2v2l2 1-2 19h-1z" fill="#B6B8BA"/>
<path transform="translate(1040,1250)" d="m0 0h1l-1 11-2 1v-2l-5-1 1-2 3-1 1-4h2z" fill="#4165AE"/>
<path transform="translate(1222,1137)" d="m0 0 4 1 10 5-4 2h-4v-2h-2l-2-4z" fill="#627BAC"/>
<path transform="translate(1239,1108)" d="m0 0 1 2h2v8l-3 1-3-2z" fill="#C8C4BF"/>
<path transform="translate(744,1367)" d="m0 0 3 1v18l-3-3z" fill="#71819E"/>
<path transform="translate(1101,1077)" d="m0 0h5v6l-2-1-11 2-1-2 9-2z" fill="#C8C4BF"/>
<path transform="translate(1292,906)" d="m0 0 2 3-2 21h-1v-22z" fill="#C8C4BF"/>
<path transform="translate(1335,1449)" d="m0 0 2 3-3 11-4 4 3-11z" fill="#939CAA"/>
<path transform="translate(859,1353)" d="m0 0h1l1 7-4 8-4 3 1-5 4-6z" fill="#425D93"/>
<path transform="translate(1228,1453)" d="m0 0h16l-1 3-3-1-13 1z" fill="#7386A9"/>
<path transform="translate(523,1246)" d="m0 0h1l1 27-2 1-1-6z" fill="#9CA3AB"/>
<path transform="translate(1011,770)" d="m0 0h2l-2 4-9 4-5 3 2-4 8-5z" fill="#C8C4BF"/>
<path transform="translate(1186,759)" d="m0 0 8 2 4 4-8-1-3-1z" fill="#D6D1CB"/>
<path transform="translate(930,756)" d="m0 0 9 4 5 1-3 2-10-2z" fill="#C8C4BF"/>
<path transform="translate(1133,689)" d="m0 0 15 3 1 3-10-2-6-2z" fill="#3F5A90"/>
<path transform="translate(925,1459)" d="m0 0h1v5l-6 7-6 1 5-4z" fill="#9AA1A9"/>
<path transform="translate(1199,1248)" d="m0 0h6l2 2 4 3-1 4v-3h-3l-2 2-1-4z" fill="#A1A6AE"/>
<path transform="translate(1233,771)" d="m0 0 2 1v3l4 2h-4v2l-4-1-2-2h3l-1-4z" fill="#C6C2BE"/>
<path transform="translate(1010,671)" d="m0 0 16 1v2l-14 1z" fill="#5E739C"/>
<path transform="translate(1430,1251)" d="m0 0h5v3l-4 3-1 6h-1v-11z" fill="#5B76AB"/>
<path transform="translate(668,951)" d="m0 0h1v14h-3l1-13z" fill="#A6ABAF"/>
<path transform="translate(902,604)" d="m0 0h12l-3 2-10 1-4 1v-3z" fill="#546B97"/>
<path transform="translate(931,1447)" d="m0 0h1l1 11-2 4-1-6v-8z" fill="#9DA4AB"/>
<path transform="translate(1338,1444)" d="m0 0 2 1-1 9-4 4 2-13z" fill="#3E5B96"/>
<path transform="translate(1236,1384)" d="m0 0 9 6 1 2-10-2z" fill="#9CA3AA"/>
<path transform="translate(1314,1248)" d="m0 0h4l-1 4-6 1-2 5-3-1 3-3 2-4h3z" fill="#97A0AA"/>
<path transform="translate(1294,1186)" d="m0 0 5 2 4 3 3 3-5 1-2-4h-2v-2l-3-1z" fill="#4064AD"/>
<path transform="translate(753,759)" d="m0 0h3v2l-12 5-2-1 3-3z" fill="#C8C4BF"/>
<path transform="translate(1191,753)" d="m0 0h2v2l7 1 7 3-4 1-13-4z" fill="#C8C4BF"/>
<path transform="translate(695,562)" d="m0 0 3 1-1 2-8 2h-5l-1-2z" fill="#4A6494"/>
<path transform="translate(1443,1434)" d="m0 0 1 4-3 5h-2l-1-4 2-4z" fill="#4D679B"/>
<path transform="translate(1089,1368)" d="m0 0h1l1 11v3h-3v-13z" fill="#4165AE"/>
<path transform="translate(770,1124)" d="m0 0h3v2l2 1-7 3-6 1 1-2 6-3z" fill="#3D588F"/>
<path transform="translate(666,977)" d="m0 0h1v12l-3 2 1-13z" fill="#9CA3AB"/>
<path transform="translate(1230,762)" d="m0 0h21v1l-10 1-2 1-9-2z" fill="#B1B3B4"/>
<path transform="translate(1149,1467)" d="m0 0 5 5-1 3 2 2-5-1-1-4v-2z" fill="#949DA8"/>
<path transform="translate(1250,783)" d="m0 0 6 1 1 6h-2v5h-1l-1-7z" fill="#C8C4BF"/>
<path transform="translate(1216,767)" d="m0 0 3 2h2l-2 8-2-4v-2l-5 1v-3h4z" fill="#C4C1BD"/>
<path transform="translate(1240,1454)" d="m0 0 3 3h-14l1-2z" fill="#3D588E"/>
<path transform="translate(1043,1086)" d="m0 0 2 1-1 2h-4l-1 2-8 1 3-3z" fill="#A1A7AD"/>
<path transform="translate(680,566)" d="m0 0h4v2l-6 2h-6l2-3z" fill="#435D91"/>
<path transform="translate(918,1437)" d="m0 0 5 3 3 4v2l-3-1-7-7z" fill="#949DA7"/>
<path transform="translate(1081,1249)" d="m0 0 6 3v6l-2-1-1-4-2-1v2h-2z" fill="#A4A9AE"/>
<path transform="translate(906,1246)" d="m0 0h11v1l-6 1 1 4h-4z" fill="#B4B5B5"/>
<path transform="translate(1177,752)" d="m0 0h11v4l-10-2z" fill="#C8C4BF"/>
</svg>
